<svg width="35" height="35" viewBox="0 0 35 35" fill="none" xmlns="http://www.w3.org/2000/svg">
<path fill-rule="evenodd" clip-rule="evenodd" d="M23.7498 15.3945L24.2534 15.6475C29.4835 19.6236 18.692 30.1249 23.9452 33.7107C20.4423 32.6231 17.7631 30.6517 17.0656 28.6686C16 25.6354 17.8769 22.2445 19.3679 18.3387C20.1493 16.295 21.9168 15.2269 23.7543 15.3855L23.7498 15.3945Z" fill="#7424EC" stroke="white" stroke-width="0.5" stroke-miterlimit="22.93"/>
<path fill-rule="evenodd" clip-rule="evenodd" d="M12.0811 27.9303C13.3788 29.2355 15.5541 28.3555 16.7834 25.9313C18.2613 23.018 20.1884 15.1843 24.2679 15.6687C20.683 13.7501 19.6917 13.7012 17.4599 14.4105C13.7772 16.2689 12.5241 21.1118 11.4406 23.107C10.394 25.0397 11.0079 26.445 12.0878 27.9281L12.0811 27.9303Z" fill="#6647F4" stroke="white" stroke-width="0.5" stroke-miterlimit="22.93"/>
<path fill-rule="evenodd" clip-rule="evenodd" d="M16.5857 6.53093L12.7559 21.1836C12.6837 21.4791 12.5846 21.7675 12.4598 22.045C11.0683 26.3692 12.2984 27.4868 13.794 28.5091C8.46263 27.7836 5.28951 24.0793 5.39239 20.5867C5.39917 20.2426 5.44475 19.9004 5.52826 19.5666L9.3581 4.91397C10.8157 -0.669101 18.0522 0.941189 16.5869 6.53428L16.5857 6.53093Z" fill="#517FFF" stroke="white" stroke-width="0.5" stroke-miterlimit="22.93"/>
</svg>
