<svg width="49" height="17" viewBox="0 0 49 17" fill="none" xmlns="http://www.w3.org/2000/svg">
<path fill-rule="evenodd" clip-rule="evenodd" d="M7.23416 4.63201V12.637C7.23306 12.9536 7.11599 13.2589 6.90481 13.4961C6.69362 13.7333 6.40271 13.8862 6.08635 13.9263C5.84236 13.9727 5.59475 13.9978 5.34634 14.0012C5.09797 13.997 4.8504 13.972 4.6063 13.9263C4.28973 13.8836 3.99882 13.7304 3.78572 13.4942C3.57262 13.2579 3.45126 12.954 3.44339 12.637V4.63201L3.17156 4.37719H0.286953L0 4.63201V12.787C0.0239882 13.6922 0.34759 14.5644 0.920822 15.2688C1.49405 15.9733 2.28503 16.4708 3.17156 16.6846C3.88292 16.8593 4.61353 16.9449 5.34634 16.9394C6.06616 16.9303 6.78181 16.8295 7.47579 16.6396C8.01743 16.4958 8.52887 16.2572 8.98605 15.935C9.4397 16.2631 9.9523 16.5023 10.4963 16.6396C11.1958 16.8276 11.9162 16.9283 12.6409 16.9394C13.3605 16.9412 14.0769 16.8453 14.7703 16.6545C15.6656 16.4583 16.4694 15.9715 17.0548 15.2711C17.6401 14.5706 17.9735 13.6965 18.0023 12.787V4.64702L17.7154 4.39215H14.7553L14.4683 4.64702V12.652C14.4672 12.9686 14.3501 13.2739 14.1389 13.5112C13.9278 13.7484 13.6369 13.9012 13.3205 13.9412C13.0765 13.9877 12.8289 14.0128 12.5805 14.0162C12.3321 14.012 12.0845 13.9869 11.8404 13.9412C11.5266 13.8953 11.2393 13.7408 11.0292 13.5048C10.8192 13.2689 10.7 12.9668 10.6926 12.652V4.64702L10.4057 4.39215H7.52109L7.23416 4.64702V4.63201ZM27.0639 16.9094C28.0337 16.9183 29.0015 16.8177 29.9485 16.6096C30.8332 16.4325 31.6286 15.9561 32.1987 15.2616C32.7689 14.5672 33.0785 13.6978 33.0747 12.802L32.7878 12.5471H29.9938L29.7068 12.802C29.6674 13.0919 29.5342 13.3612 29.3272 13.5694C29.1201 13.7776 28.8506 13.9134 28.559 13.9562C28.06 14.0405 27.555 14.0856 27.0488 14.0911C26.5426 14.0848 26.0377 14.0397 25.5385 13.9562C25.2222 13.9099 24.9328 13.7531 24.7225 13.5141C24.5121 13.275 24.3945 12.9694 24.3907 12.652V11.7226H31.7306C32.0822 11.7391 32.4263 11.618 32.689 11.3853C32.9516 11.1527 33.1118 10.827 33.1351 10.4784V8.13983C33.1266 7.22917 32.8043 6.34886 32.2218 5.64524C31.6393 4.94161 30.8318 4.45709 29.9334 4.27225C28.9852 4.07149 28.0183 3.97097 27.0488 3.97242C26.0705 3.9484 25.0939 4.06454 24.1491 4.31722C23.246 4.55709 22.4457 5.08129 21.8684 5.81112C21.291 6.54095 20.9678 7.43698 20.9473 8.36468V12.787C20.9571 13.694 21.2805 14.5701 21.8634 15.2687C22.4462 15.9673 23.2531 16.446 24.1491 16.6246C25.1012 16.8327 26.0739 16.9333 27.0488 16.9244L27.0639 16.9094ZM29.7068 9.41405H24.4058V8.28975C24.4106 7.97579 24.5293 7.67405 24.7401 7.43998C24.951 7.2059 25.2398 7.05519 25.5536 7.01553C26.0507 6.91727 26.557 6.87205 27.0639 6.88062C27.5707 6.871 28.0771 6.91623 28.5741 7.01553C28.8879 7.05519 29.1768 7.2059 29.3877 7.43998C29.5985 7.67405 29.7172 7.97579 29.7219 8.28975V9.42906L29.7068 9.41405ZM36.4577 0.0298522L36.1707 0.29972V12.787C36.1868 13.6945 36.5144 14.5695 37.0993 15.2673C37.6842 15.9651 38.4914 16.4439 39.3876 16.6246C41.2947 17.0242 43.2648 17.0242 45.1719 16.6246C46.0666 16.4434 46.8719 15.964 47.4543 15.266C48.0367 14.5679 48.3611 13.6932 48.3736 12.787V8.54461C48.3638 7.63761 48.0405 6.76147 47.4576 6.06287C46.8748 5.36427 46.0678 4.88556 45.1719 4.70695C44.2254 4.49463 43.2577 4.38904 42.2873 4.39215H39.6292V0.284714L39.3423 0.0148926L36.4577 0.0298522ZM42.2873 7.24038C42.7942 7.23028 43.3006 7.27556 43.7976 7.37534C44.1129 7.41465 44.4035 7.56479 44.6168 7.79855C44.8302 8.03231 44.9521 8.3342 44.9604 8.64951V12.6671C44.9526 12.9841 44.8312 13.2879 44.6181 13.5241C44.405 13.7604 44.1141 13.9136 43.7976 13.9562C43.2991 14.0432 42.7934 14.0834 42.2873 14.0761C41.7812 14.0828 41.2756 14.0426 40.777 13.9562C40.4632 13.9103 40.1759 13.7557 39.9658 13.5198C39.7558 13.2839 39.6366 12.9818 39.6292 12.6671V7.24038H42.2873Z" fill="black"/>
</svg>
