<svg width="9" height="6" viewBox="0 0 9 6" fill="none" xmlns="http://www.w3.org/2000/svg">
<path d="M1.70711 0.292893C1.31658 -0.0976311 0.683417 -0.0976311 0.292893 0.292893C-0.0976311 0.683417 -0.0976311 1.31658 0.292893 1.70711L1.70711 0.292893ZM4.5 4.5L3.79289 5.20711C4.18342 5.59763 4.81658 5.59763 5.20711 5.20711L4.5 4.5ZM8.70711 1.70711C9.09763 1.31658 9.09763 0.683417 8.70711 0.292893C8.31658 -0.0976311 7.68342 -0.0976311 7.29289 0.292893L8.70711 1.70711ZM0.292893 1.70711L3.79289 5.20711L5.20711 3.79289L1.70711 0.292893L0.292893 1.70711ZM5.20711 5.20711L8.70711 1.70711L7.29289 0.292893L3.79289 3.79289L5.20711 5.20711Z" fill="black"/>
</svg>
