<svg width="20" height="20" viewBox="0 0 20 20" fill="none" xmlns="http://www.w3.org/2000/svg">
<path d="M9.52497 0.00781126C7.85229 0.114277 6.09598 0.704402 4.70828 1.62609C3.24314 2.5995 2.08155 3.91359 1.32885 5.4467C0.916875 6.28626 0.659779 7.07715 0.483218 8.05055C0.350023 8.7806 0.322145 9.88176 0.415072 10.7274C0.538974 11.8651 0.963339 13.2278 1.53639 14.3412L1.70056 14.6545L1.31956 15.7708C1.10892 16.3853 0.727925 17.5047 0.470828 18.2591C0.210634 19.0165 0 19.6553 0 19.6858C0 19.7131 0.0402682 19.7527 0.089829 19.7709C0.170365 19.8013 0.179658 19.8135 0.16417 19.9078C0.145585 20.0052 0.148682 20.0112 0.219926 19.9899C0.346926 19.9504 3.11923 19.0835 4.29011 18.7124C4.90342 18.5207 5.43001 18.3625 5.46098 18.3625C5.48886 18.3625 5.62206 18.4142 5.75525 18.4812C6.88896 19.0409 8.097 19.3755 9.38249 19.4911C9.89048 19.5337 10.9251 19.5124 11.4238 19.4424C14.3788 19.0409 16.894 17.4378 18.4428 14.9769C18.9477 14.1739 19.4278 13.0544 19.6849 12.081C19.9296 11.1472 20.0474 9.98823 19.9823 9.09392C19.815 6.71821 18.8796 4.61322 17.2534 2.95844C15.6767 1.35537 13.6695 0.363712 11.3835 0.0625652C11.049 0.0199788 9.89048 -0.0165238 9.52497 0.00781126ZM10.7361 2.08846C11.8419 2.17667 12.7495 2.41698 13.7067 2.87631C15.0045 3.50294 16.0918 4.43984 16.8971 5.63225C17.5167 6.54786 17.8977 7.53343 18.0463 8.61026C18.1176 9.12129 18.1176 10.1555 18.0463 10.6787C17.5414 14.3564 14.4501 17.1914 10.6989 17.4226C9.37629 17.5017 8.14656 17.2887 6.94471 16.7716C6.61327 16.6287 6.06501 16.3366 5.89464 16.215C5.84198 16.1754 5.77384 16.142 5.74286 16.142C5.71498 16.142 5.0552 16.3397 4.28082 16.583C3.50643 16.8264 2.86833 17.0241 2.86524 17.018C2.85904 17.0119 3.05728 16.4188 3.30199 15.7009C3.5467 14.98 3.74804 14.3564 3.74804 14.3077C3.74804 14.259 3.69228 14.1465 3.61175 14.0339C2.31697 12.2118 1.8957 9.69621 2.5245 7.56385C2.66389 7.10148 2.7785 6.81859 3.00463 6.37751C3.62414 5.18814 4.56889 4.15086 5.73047 3.39039C7.19561 2.42915 9.02627 1.95462 10.7361 2.08846Z" fill="#10C9A0"/>
<path d="M7.19531 5.79217C7.13542 5.81018 7.04948 5.85133 7 5.87962C6.86719 5.96193 6.48177 6.3683 6.36198 6.55349C5.97917 7.14248 5.89323 7.92695 6.1224 8.69341C6.29688 9.27211 6.51042 9.7145 6.90104 10.3112C7.39583 11.0622 7.71615 11.4686 8.22917 11.9907C9 12.7752 9.64844 13.215 10.6432 13.624C11.3776 13.9275 11.9193 14.0998 12.224 14.1306C12.4349 14.1512 12.8958 14.0792 13.1667 13.9815C13.5417 13.8477 13.9714 13.5494 14.138 13.3076C14.3047 13.0607 14.4766 12.5026 14.4974 12.1322L14.513 11.8879L14.4323 11.7953C14.375 11.7335 14.1406 11.5946 13.6667 11.3426C12.5417 10.7459 12.3984 10.6893 12.2214 10.7819C12.1771 10.8025 12.0104 10.9696 11.8542 11.1497C11.3906 11.6821 11.2943 11.7747 11.2161 11.7747C11.1172 11.7747 10.4688 11.448 10.1667 11.2474C9.8151 11.0108 9.58594 10.8205 9.29688 10.5247C8.95312 10.1723 8.58073 9.6682 8.3724 9.27468L8.32552 9.18209L8.51302 8.9789C8.76042 8.71913 8.86198 8.56223 8.96094 8.2896C9.0625 8.01182 9.05729 7.92695 8.90885 7.54372C8.77604 7.20164 8.66927 6.91872 8.48438 6.42746C8.33333 6.02365 8.22135 5.85904 8.0651 5.81018C7.91667 5.76645 7.31771 5.75359 7.19531 5.79217Z" fill="#10C9A0"/>
</svg>
